<?xml version="1.0" encoding="utf-8"?>
<svg width="16" height="16" viewBox="0 0 16 16" xmlns="http://www.w3.org/2000/svg">
  <g fill="none" fill-rule="evenodd">
    <path fill="#40B6E0" fill-opacity=".6" d="M 10.397 14.549 L 9.007 13.165 L 9.007 12.111 L 11.007 12.111 L 11.007 7.968 L 15.007 7.968 C 15.007 4.102 11.873 0.968 8.007 0.968 C 7.058 0.968 6.346 1.241 5.555 1.806 C 6.814 3.14 6.83 3.135 6.83 3.135 C 6.83 3.135 6.828 3.122 6.841 4.163 C 6.841 4.177 6.893 4.195 4.935 4.203 C 4.932 7.966 4.945 4.265 4.961 7.977 C 4.961 7.999 1.007 7.958 1.007 7.968 C 1.007 11.834 4.141 14.968 8.007 14.968 C 8.846 14.968 9.651 14.82 10.397 14.549 Z"/>
    <path fill="#231F20" fill-opacity=".7" d="M2.98401421,6 C1.26820604,6 0,4.66061706 0,3.02722323 L0,3.00544465 C0,1.36116152 1.27886323,0 3.0053286,0 C4.73179396,0 6,1.33938294 6,2.98366606 L6,3.00544465 C6,4.63883848 4.72113677,6 2.98401421,6 Z M3.0053286,4.84573503 C4.04973357,4.84573503 4.71047957,4.01814882 4.71047957,3.02722323 L4.71047957,3.00544465 C4.71047957,1.99274047 3.9964476,1.15426497 2.98401421,1.15426497 C1.95026643,1.15426497 1.28952043,1.98185118 1.28952043,2.98366606 L1.28952043,3.00544465 C1.28952043,4.00725953 2.0035524,4.84573503 3.0053286,4.84573503 Z" transform="translate(5 5)"/>
    <path fill="#9AA7B0" d="M4,4 L6,4 L3,7 L0,4 L2,4 L2,0 L4,0 L4,4 Z" transform="translate(10 9)"/>
    <path fill="#9AA7B0" d="M 4.068 3.422 L 6.068 3.422 L 3.068 0.422 L 0.068 3.422 L 2.068 3.422 L 2.068 7.227 L 4.068 7.252 L 4.068 3.422 Z" style=""/>
  </g>
</svg>